<?xml version="1.0" encoding="UTF-8"?>
<svg width="60px" height="60px" viewBox="0 0 60 60" version="1.1" xmlns="http://www.w3.org/2000/svg" xmlns:xlink="http://www.w3.org/1999/xlink">
    <!-- Generator: Sketch 39 (31667) - http://www.bohemiancoding.com/sketch -->
    <title>Group</title>
    <desc>Created with Sketch.</desc>
    <defs></defs>
    <g id="Page-1" stroke="none" stroke-width="1" fill="none" fill-rule="evenodd">
        <g id="Group">
            <rect id="Rectangle-3" fill="#238BD4" x="0" y="0" width="60" height="60"></rect>
            <path d="M16.96875,44.890625 L18.7949219,50.046875 L20.6113281,44.890625 L22.5351562,44.890625 L22.5351562,52 L21.0654297,52 L21.0654297,50.0566406 L21.2119141,46.7021484 L19.2929688,52 L18.2871094,52 L16.3730469,46.7070312 L16.5195312,50.0566406 L16.5195312,52 L15.0546875,52 L15.0546875,44.890625 L16.96875,44.890625 Z M28.1861607,48.9189453 L25.3736607,48.9189453 L25.3736607,50.8232422 L28.6744419,50.8232422 L28.6744419,52 L23.9088169,52 L23.9088169,44.890625 L28.6646763,44.890625 L28.6646763,46.0771484 L25.3736607,46.0771484 L25.3736607,47.7714844 L28.1861607,47.7714844 L28.1861607,48.9189453 Z M35.8293526,52 L34.3645089,52 L31.5129464,47.3222656 L31.5129464,52 L30.0481026,52 L30.0481026,44.890625 L31.5129464,44.890625 L34.3693917,49.578125 L34.3693917,44.890625 L35.8293526,44.890625 L35.8293526,52 Z M42.9492188,44.8900003 L42.9492188,49.5726175 C42.9492188,50.3506162 42.7058944,50.9658444 42.2192383,51.4183207 C41.7325822,51.8707969 41.0677125,52.0970316 40.2246094,52.0970316 C39.3945271,52.0970316 38.735354,51.8773072 38.2470703,51.4378519 C37.7587866,50.9983966 37.5097657,50.3945615 37.5,49.6263285 L37.5,44.8900003 L38.9648438,44.8900003 L38.9648438,49.5823832 C38.9648438,50.0478803 39.0763335,50.3872324 39.2993164,50.6004496 C39.5222993,50.8136668 39.8307272,50.9202738 40.2246094,50.9202738 C41.0481812,50.9202738 41.4664713,50.4873354 41.4794922,49.6214457 L41.4794922,44.8900003 L42.9492188,44.8900003 Z" id="MENU" fill-opacity="0.650000036" fill="#FFFFFF"></path>
        </g>
    </g>
</svg>