<?xml version="1.0" encoding="UTF-8" standalone="no"?>
<svg
   xmlns:dc="http://purl.org/dc/elements/1.1/"
   xmlns:cc="http://creativecommons.org/ns#"
   xmlns:rdf="http://www.w3.org/1999/02/22-rdf-syntax-ns#"
   xmlns:svg="http://www.w3.org/2000/svg"
   xmlns="http://www.w3.org/2000/svg"
   xmlns:sodipodi="http://sodipodi.sourceforge.net/DTD/sodipodi-0.dtd"
   xmlns:inkscape="http://www.inkscape.org/namespaces/inkscape"
   width="41"
   height="32"
   viewBox="0 0 40 40"
   version="1.1"
   id="svg884"
   sodipodi:docname="template2.svg"
   inkscape:version="0.92.2 (unknown)">
  <metadata
     id="metadata890">
    <rdf:RDF>
      <cc:Work
         rdf:about="">
        <dc:format>image/svg+xml</dc:format>
        <dc:type
           rdf:resource="http://purl.org/dc/dcmitype/StillImage" />
        <dc:title></dc:title>
      </cc:Work>
    </rdf:RDF>
  </metadata>
  <defs
     id="defs888" />
  <sodipodi:namedview
     pagecolor="#ffffff"
     bordercolor="#666666"
     borderopacity="1"
     objecttolerance="10"
     gridtolerance="10"
     guidetolerance="10"
     inkscape:pageopacity="0"
     inkscape:pageshadow="2"
     inkscape:window-width="1855"
     inkscape:window-height="1056"
     id="namedview886"
     showgrid="false"
     inkscape:zoom="27.09375"
     inkscape:cx="20.5"
     inkscape:cy="20.429066"
     inkscape:window-x="65"
     inkscape:window-y="24"
     inkscape:window-maximized="1"
     inkscape:current-layer="svg884" />
  <path
     d="m384 192c-53 0-96 43-96 96c0 28 13 53 32 71l0 153l64-64l64 64l0-153c20-18 32-43 32-71c0-53-43-96-96-96m0 160c-35 0-64-29-64-64c0-35 29-64 64-64c35 0 64 29 64 64c0 35-29 64-64 64m-170 96l-150 0l0-384l179 0l96 96l77 0l0-13l-147-147l-269 0l0 512l275 0l-60-63z m-118-288l160 0l0 32l-160 0z m0 64l160 0l0 32l-160 0z m0 64l160 0l0 32l-160 0z"
     transform="scale(0.046875 0.046875)"
     id="path882" />
  <path
     style="fill:#f9f9f9;stroke-width:0.03690888"
     d="M 4.5036909,12.807382 V 0.01845444 h 6.7267131 6.726713 l 3.663137,3.66327586 3.663137,3.6632755 V 7.6678895 7.9907728 H 23.37325 21.463109 L 19.064245,5.5916955 16.66538,3.1926182 H 12.171617 7.6778547 v 9.6147638 9.614763 h 3.7598923 3.759891 l 1.3629,1.430219 c 0.749594,0.786621 1.426358,1.500808 1.503918,1.587082 l 0.141019,0.156863 H 11.354583 4.5036909 Z"
     id="path4581"
     inkscape:connector-curvature="0"
     transform="matrix(0.9375,0,0,0.9375,-4.21875,0)" />
  <path
     style="fill:#f9f9f9;stroke-width:0.03690888"
     d="m 20.522145,21.744321 v -3.796302 l -0.275752,-0.293126 c -0.643052,-0.683569 -1.077557,-1.537963 -1.253311,-2.464467 -0.07403,-0.390271 -0.07551,-1.184262 -0.003,-1.600205 0.298447,-1.711422 1.505653,-3.129675 3.156029,-3.7077726 0.532675,-0.1865868 0.911392,-0.246766 1.550173,-0.246327 0.838633,5.763e-4 1.413693,0.1319153 2.120669,0.4843426 0.492003,0.245264 0.844892,0.501854 1.257528,0.914368 1.20708,1.20672 1.672882,2.892561 1.254706,4.541061 -0.188838,0.744423 -0.633942,1.535688 -1.178916,2.095771 l -0.279823,0.287582 v 3.790689 3.790689 l -1.587082,-1.58676 -1.587082,-1.58676 -1.587082,1.58676 -1.587082,1.58676 z m 3.605173,-4.159593 c 0.697967,-0.09492 1.294992,-0.396891 1.819645,-0.920368 0.491102,-0.490001 0.778752,-1.015684 0.907506,-1.658474 0.08143,-0.40655 0.05627,-1.08689 -0.05401,-1.460327 -0.25301,-0.856742 -0.854399,-1.592646 -1.625659,-1.989278 -0.507689,-0.261086 -0.754055,-0.323997 -1.34931,-0.344557 -0.439168,-0.01517 -0.565481,-0.0062 -0.841572,0.05971 -1.287278,0.307347 -2.261934,1.359827 -2.464854,2.661666 -0.05608,0.359762 -0.02141,0.937612 0.0775,1.29181 0.438383,1.569854 1.94332,2.575694 3.530753,2.359815 z"
     id="path4583"
     inkscape:connector-curvature="0"
     transform="matrix(0.9375,0,0,0.9375,-4.21875,0)" />
  <path
     style="fill:#f9f9f9;stroke-width:0.03690888"
     d="M 9.3018454,8.8027682 V 8.0276817 h 3.9861596 3.986159 V 8.8027682 9.5778547 H 13.288005 9.3018454 Z"
     id="path4585"
     inkscape:connector-curvature="0"
     transform="matrix(0.9375,0,0,0.9375,-4.21875,0)" />
  <path
     style="fill:#f9f9f9;stroke-width:0.03690888"
     d="m 9.3018454,11.995386 v -0.793541 h 3.9861596 3.986159 v 0.793541 0.793541 H 13.288005 9.3018454 Z"
     id="path4587"
     inkscape:connector-curvature="0"
     transform="matrix(0.9375,0,0,0.9375,-4.21875,0)" />
  <path
     style="fill:#f9f9f9;stroke-width:0.03690888"
     d="m 9.3018454,15.206459 v -0.793541 h 3.9861596 3.986159 V 15.206459 16 H 13.288005 9.3018454 Z"
     id="path4589"
     inkscape:connector-curvature="0"
     transform="matrix(0.9375,0,0,0.9375,-4.21875,0)" />
</svg>
