<svg width="600" height="600" viewBox="0 0 600 600" version="1.1" xmlns="http://www.w3.org/2000/svg" xmlns:xlink="http://www.w3.org/1999/xlink" xmlns:figma="http://www.figma.com/figma/ns">
<title>reinf</title>
<desc>Created using Figma</desc>
<g id="Canvas" transform="translate(1139 625)" figma:type="canvas">
<g id="reinf" figma:type="frame">
<g id="Path-86" figma:type="vector">
<use xlink:href="#path0_fill" transform="translate(-1139 -625)" fill="url(#paint0_radial)"/>
</g>
<g id="padlock" figma:type="frame">
<g id="Vector" figma:type="vector">
<use xlink:href="#path1_fill" transform="translate(-949 -485)" fill="#FFFFFF"/>
</g>
<g id="Vector" figma:type="vector">
<use xlink:href="#path2_fill" transform="translate(-869 -335)" fill="#186BAD"/>
</g>
</g>
</g>
</g>
<defs>
<radialGradient id="paint0_radial" cx="0.5" cy="0.5" r="0.5" gradientUnits="userSpaceOnUse" gradientTransform="matrix(848.528 0 0 848.528 -124.264 -124.264)">
<stop offset="0" stop-color="#4C8BBD"/>
<stop offset="1" stop-color="#06365C"/>
</radialGradient>
<path id="path0_fill" fill-rule="evenodd" d="M 600 -6.03481e-21L 600 600L 0 600L 0 -6.03481e-21L 600 -6.03481e-21Z"/>
<path id="path1_fill" d="M 115.001 0C 63.723 0 22.0034 40.6681 22.0034 90.6575L 22.0034 142.434C 22.0034 143.023 21.2586 144.014 20.6735 144.204C 15.6444 145.839 11.5602 147.255 7.82141 148.66C 3.36282 150.336 1.79055e-06 155.153 1.79055e-06 159.865L 1.79055e-06 278.833C 1.79055e-06 283.513 3.34109 288.334 7.77143 290.046C 42.0499 303.287 78.1272 310 115.001 310C 151.874 310 187.952 303.286 222.232 290.044C 226.661 288.333 230 283.513 230 278.833L 230 159.865C 230 155.153 226.638 150.336 222.177 148.659C 218.437 147.254 214.353 145.837 209.328 144.202C 208.744 144.013 207.999 143.021 207.999 142.432L 207.999 90.6559C 207.997 40.6681 166.28 0 115.001 0ZM 176.022 90.6559L 176.022 135.33C 156.011 131.132 135.481 129.006 115.01 129.005C 94.5468 129.005 74.0217 131.131 53.98 135.325L 53.98 90.6559C 53.98 57.8555 81.3531 31.1719 115 31.1719C 148.646 31.1714 176.022 57.8555 176.022 90.6559Z"/>
<path id="path2_fill" d="M 60.9519 41.6212C 60.9519 46.8448 65.2155 51.0808 70.4759 51.0808C 75.7363 51.0808 80 46.846 80 41.6212C 80 26.5369 67.2078 14.249 49.5247 10.9616L 49.5247 9.45957C 49.5247 4.23597 45.261 -1.41155e-05 40.0006 -1.41155e-05C 34.7414 -1.41155e-05 30.4765 4.23479 30.4765 9.45957L 30.4765 10.9616C 12.7934 14.249 0.00118842 26.5369 0.00118842 41.6212C 0.00118842 62.6974 16.9478 71.5552 30.4765 76.6537L 30.4765 109.526C 23.4591 107.241 19.0481 102.642 19.0481 98.3788C 19.0481 93.1552 14.7845 88.9192 9.52406 88.9192C 4.26486 88.9192 1.08763e-06 93.154 1.08763e-06 98.3788C 1.08763e-06 113.463 12.7922 125.751 30.4753 129.038L 30.4753 130.54C 30.4753 135.764 34.739 140 39.9994 140C 45.2586 140 49.5235 135.765 49.5235 130.54L 49.5235 129.038C 67.2066 125.751 79.9988 113.463 79.9988 98.3788C 79.9988 77.3026 63.0522 68.4448 49.5235 63.3463L 49.5235 30.4744C 56.5397 32.7587 60.9519 37.3569 60.9519 41.6212ZM 30.4753 56.0142C 20.981 51.3935 19.0469 47.3569 19.0469 41.6212C 19.0469 37.3569 23.4579 32.7587 30.4753 30.4744L 30.4753 56.0142ZM 60.9519 98.3764C 60.9519 102.641 56.5409 107.239 49.5235 109.523L 49.5235 83.9835C 59.0178 88.6053 60.9519 92.6407 60.9519 98.3764Z"/>
</defs>
</svg>
