<?xml version="1.0" encoding="UTF-8" standalone="no"?>
<svg
   xmlns:dc="http://purl.org/dc/elements/1.1/"
   xmlns:cc="http://creativecommons.org/ns#"
   xmlns:rdf="http://www.w3.org/1999/02/22-rdf-syntax-ns#"
   xmlns:svg="http://www.w3.org/2000/svg"
   xmlns="http://www.w3.org/2000/svg"
   xmlns:sodipodi="http://sodipodi.sourceforge.net/DTD/sodipodi-0.dtd"
   xmlns:inkscape="http://www.inkscape.org/namespaces/inkscape"
   version="1.1"
   viewBox="0 0 16 16"
   enable-background="new 0 0 463 463"
   id="svg2"
   inkscape:version="0.91 r13725"
   sodipodi:docname="relatorios.svg"
   width="16"
   height="16">
  <metadata
     id="metadata28">
    <rdf:RDF>
      <cc:Work
         rdf:about="">
        <dc:format>image/svg+xml</dc:format>
        <dc:type
           rdf:resource="http://purl.org/dc/dcmitype/StillImage" />
        <dc:title />
      </cc:Work>
    </rdf:RDF>
  </metadata>
  <defs
     id="defs26" />
  <sodipodi:namedview
     pagecolor="#ffffff"
     bordercolor="#666666"
     borderopacity="1"
     objecttolerance="10"
     gridtolerance="10"
     guidetolerance="10"
     inkscape:pageopacity="0"
     inkscape:pageshadow="2"
     inkscape:window-width="1855"
     inkscape:window-height="1056"
     id="namedview24"
     showgrid="false"
     inkscape:zoom="16"
     inkscape:cx="10.269449"
     inkscape:cy="-5.9394737"
     inkscape:window-x="65"
     inkscape:window-y="24"
     inkscape:window-maximized="1"
     inkscape:current-layer="svg2" />
  <g
     id="g4"
     style="fill:#666666"
     transform="matrix(0.04558405,0,0,0.03455724,-2.5527101,7.492433e-8)">
    <g
       id="g6"
       style="fill:#666666">
      <path
         d="m 359.5,16 -96,0 c -0.089,0 -0.176,0.01 -0.264,0.013 C 256.033,6.305 244.49,0 231.5,0 218.51,0 206.967,6.305 199.764,16.013 199.676,16.01 199.589,16 199.5,16 l -96,0 C 77.309,16 56,37.309 56,63.5 l 0,352 c 0,26.191 21.309,47.5 47.5,47.5 l 256,0 c 26.191,0 47.5,-21.309 47.5,-47.5 l 0,-352 C 407,37.309 385.691,16 359.5,16 Z m -128,-1 c 13.51,0 24.5,10.991 24.5,24.5 l 0,8 c 0,4.142 3.357,7.5 7.5,7.5 l 32,0 c 4.687,0 8.5,3.813 8.5,8.5 0,4.687 -3.813,8.5 -8.5,8.5 l -128,0 c -4.687,0 -8.5,-3.813 -8.5,-8.5 0,-4.687 3.813,-8.5 8.5,-8.5 l 32,0 c 4.143,0 7.5,-3.358 7.5,-7.5 l 0,-8 C 207,25.991 217.99,15 231.5,15 Z m -64,72 128,0 c 12.958,0 23.5,-10.542 23.5,-23.5 0,-0.168 -0.009,-0.333 -0.013,-0.5 l 40.513,0 c 0.275,0 0.5,0.224 0.5,0.5 l 0,352 c 0,0.276 -0.225,0.5 -0.5,0.5 l -256,0 c -0.275,0 -0.5,-0.224 -0.5,-0.5 l 0,-352 c 0,-0.276 0.225,-0.5 0.5,-0.5 l 40.513,0 C 144.009,63.167 144,63.332 144,63.5 144,76.458 154.542,87 167.5,87 Z M 392,415.5 c 0,17.92 -14.579,32.5 -32.5,32.5 l -256,0 C 85.579,448 71,433.42 71,415.5 l 0,-352 C 71,45.58 85.579,31 103.5,31 l 89.431,0 C 192.327,33.74 192,36.582 192,39.5 l 0,0.5 -24.5,0 c -7.023,0 -13.332,3.101 -17.641,8 L 103.5,48 C 94.953,48 88,54.953 88,63.5 l 0,352 c 0,8.547 6.953,15.5 15.5,15.5 l 256,0 c 8.547,0 15.5,-6.953 15.5,-15.5 l 0,-352 C 375,54.953 368.047,48 359.5,48 l -46.359,0 c -4.31,-4.899 -10.619,-8 -17.641,-8 l -24.5,0 0,-0.5 c 0,-2.918 -0.328,-5.76 -0.931,-8.5 l 89.431,0 c 17.921,0 32.5,14.58 32.5,32.5 l 0,352 z"
         id="path8"
         style="fill:#666666"
         inkscape:connector-curvature="0" />
      <path
         d="m 231.5,63 c 4.143,0 7.5,-3.358 7.5,-7.5 l 0,-16 c 0,-4.142 -3.357,-7.5 -7.5,-7.5 -4.143,0 -7.5,3.358 -7.5,7.5 l 0,16 c 0,4.142 3.357,7.5 7.5,7.5 z"
         id="path10"
         style="fill:#666666"
         inkscape:connector-curvature="0" />
      <path
         d="m 223.5,175 96,0 c 4.143,0 7.5,-3.358 7.5,-7.5 0,-4.142 -3.357,-7.5 -7.5,-7.5 l -96,0 c -4.143,0 -7.5,3.358 -7.5,7.5 0,4.142 3.357,7.5 7.5,7.5 z"
         id="path12"
         style="fill:#666666"
         inkscape:connector-curvature="0" />
      <path
         d="m 138.196,162.197 c -2.929,2.929 -2.929,7.678 0,10.606 l 16,16 c 1.465,1.464 3.385,2.197 5.304,2.197 1.919,0 3.839,-0.732 5.304,-2.197 l 32,-32 c 2.929,-2.929 2.929,-7.678 0,-10.606 -2.93,-2.929 -7.678,-2.929 -10.607,0 L 159.5,172.894 148.804,162.197 c -2.93,-2.929 -7.678,-2.929 -10.608,0 z"
         id="path14"
         style="fill:#666666"
         inkscape:connector-curvature="0" />
      <path
         d="m 223.5,255 96,0 c 4.143,0 7.5,-3.358 7.5,-7.5 0,-4.142 -3.357,-7.5 -7.5,-7.5 l -96,0 c -4.143,0 -7.5,3.358 -7.5,7.5 0,4.142 3.357,7.5 7.5,7.5 z"
         id="path16"
         style="fill:#666666"
         inkscape:connector-curvature="0" />
      <path
         d="M 186.196,226.197 159.5,252.894 148.804,242.197 c -2.93,-2.929 -7.678,-2.929 -10.607,0 -2.929,2.929 -2.929,7.678 0,10.606 l 16,16 c 1.465,1.464 3.385,2.197 5.304,2.197 1.919,0 3.839,-0.732 5.304,-2.197 l 32,-32 c 2.929,-2.929 2.929,-7.678 0,-10.606 -2.931,-2.929 -7.679,-2.929 -10.609,0 z"
         id="path18"
         style="fill:#666666"
         inkscape:connector-curvature="0" />
      <path
         d="m 223.5,335 96,0 c 4.143,0 7.5,-3.358 7.5,-7.5 0,-4.142 -3.357,-7.5 -7.5,-7.5 l -96,0 c -4.143,0 -7.5,3.358 -7.5,7.5 0,4.142 3.357,7.5 7.5,7.5 z"
         id="path20"
         style="fill:#666666"
         inkscape:connector-curvature="0" />
      <path
         d="M 186.196,306.197 159.5,332.894 148.804,322.197 c -2.93,-2.929 -7.678,-2.929 -10.607,0 -2.929,2.929 -2.929,7.678 0,10.606 l 16,16 c 1.465,1.464 3.385,2.197 5.304,2.197 1.919,0 3.839,-0.732 5.304,-2.197 l 32,-32 c 2.929,-2.929 2.929,-7.678 0,-10.606 -2.931,-2.929 -7.679,-2.929 -10.609,0 z"
         id="path22"
         style="fill:#666666"
         inkscape:connector-curvature="0" />
    </g>
  </g>
</svg>
