<?xml version="1.0" standalone="no"?>
<!DOCTYPE svg PUBLIC "-//W3C//DTD SVG 20010904//EN"
 "http://www.w3.org/TR/2001/REC-SVG-20010904/DTD/svg10.dtd">
<svg version="1.0" xmlns="http://www.w3.org/2000/svg"
 width="310.000000pt" height="310.000000pt" viewBox="0 0 310.000000 310.000000"
 preserveAspectRatio="xMidYMid meet">
<metadata>
Created by potrace 1.11, written by Peter Selinger 2001-2013
</metadata>
<g transform="translate(0.000000,310.000000) scale(0.100000,-0.100000)"
fill="#000000" stroke="none">
<path d="M1405 3090 c-301 -48 -570 -248 -700 -521 -72 -153 -78 -194 -83
-571 l-4 -337 -77 -26 c-51 -17 -88 -36 -107 -56 l-29 -30 -3 -632 c-2 -620
-2 -633 18 -665 25 -41 85 -69 264 -122 160 -48 319 -82 491 -106 160 -22 557
-26 715 -6 157 19 378 66 527 111 180 55 238 82 263 123 20 32 20 45 18 665
l-3 632 -29 30 c-18 19 -54 39 -95 52 -36 12 -71 26 -78 31 -8 6 -12 107 -16
346 -4 374 -8 399 -81 558 -113 243 -346 436 -611 504 -92 24 -288 34 -380 20z
m270 -315 c110 -23 228 -87 306 -164 73 -73 110 -131 148 -230 24 -64 25 -75
29 -348 2 -156 1 -283 -2 -283 -3 0 -61 9 -128 20 -329 52 -627 52 -956 0 -67
-11 -125 -20 -128 -20 -3 0 -4 127 -2 283 4 273 5 284 29 348 53 137 124 228
238 303 145 95 302 125 466 91z m-31 -1186 c23 -11 56 -62 56 -87 0 -5 24 -17
53 -27 150 -48 247 -163 247 -293 0 -48 -46 -92 -95 -92 -47 0 -95 44 -95 88
0 35 -30 76 -70 97 -16 8 -31 15 -35 15 -3 0 -5 -73 -5 -162 l1 -163 78 -37
c90 -43 158 -104 191 -173 30 -63 37 -158 16 -222 -30 -91 -127 -178 -233
-209 -43 -13 -53 -20 -58 -43 -23 -105 -167 -105 -190 -1 -5 23 -15 31 -58 45
-150 48 -247 163 -247 293 0 48 46 92 95 92 47 0 95 -44 95 -88 0 -35 30 -76
70 -97 16 -8 31 -15 35 -15 3 0 5 73 5 163 l-1 162 -78 37 c-90 43 -158 104
-191 173 -30 63 -37 158 -16 222 30 91 127 178 233 209 42 12 53 20 58 42 15
68 77 99 139 71z"/>
<path d="M1454 1271 c-62 -38 -80 -92 -49 -151 13 -24 70 -70 89 -70 3 0 6 54
6 120 0 66 -3 120 -7 120 -5 0 -22 -9 -39 -19z"/>
<path d="M1700 630 c0 -66 2 -120 5 -120 17 0 66 33 84 56 39 50 20 125 -42
163 -19 12 -37 21 -41 21 -3 0 -6 -54 -6 -120z"/>
</g>
</svg>
