<?xml version="1.0" encoding="UTF-8" standalone="no"?>
<svg width="115px" height="18px" viewBox="0 0 115 18" version="1.1" xmlns="http://www.w3.org/2000/svg" xmlns:xlink="http://www.w3.org/1999/xlink">
    <!-- Generator: Sketch 39 (31667) - http://www.bohemiancoding.com/sketch -->
    <title>SYNCHRO</title>
    <desc>Created with Sketch.</desc>
    <defs></defs>
    <g id="Page-1" stroke="none" stroke-width="1" fill="none" fill-rule="evenodd">
        <path d="M0,17.1671655 L0.919759299,14.1744041 C2.69919019,15.0845078 4.24414499,15.3213015 5.53078365,15.3213015 C6.52173517,15.3213015 7.01778122,15.2143734 7.74355309,14.7044016 C8.46932495,14.1944297 8.96877826,13.8604648 9.16840115,13.0288184 C9.33224256,12.3462407 9.1798674,12.0168351 8.89916327,11.5382461 C8.61845914,11.0596572 8.04505257,10.8458601 7.12341975,10.2574311 L5.53078383,9.55482408 C4.22377128,8.7074862 3.75382676,8.45140879 3.31433098,7.70214245 C2.8748352,6.95287608 2.73203809,5.32797594 2.9712089,4.33156938 C3.29324203,2.98995111 3.84143848,2.63277566 5.04048743,1.76582348 C6.23953639,0.898871322 8.22867478,0.538258487 9.76305132,0.538258487 C11.1296054,0.538258487 13.2514004,0.697642116 14.6624495,1.14484821 L13.8056981,3.98947724 C12.1089343,3.26767091 11.2220162,3.1328844 10.3029886,3.1328844 C9.43191024,3.1328844 8.82819433,3.17082395 7.93798796,3.45634081 C7.04778159,3.74185769 6.79971542,4.28696908 6.63399077,4.97739252 C6.49463139,5.55797587 6.78949549,6.11410405 7.74355309,6.733916 L9.63013023,7.83947202 C10.9592342,8.6946556 12.1475069,9.49639585 12.5721905,10.2574308 C12.9968742,11.0184657 13.2714492,12.494938 13.0153293,13.5619561 C12.651865,15.0761802 11.886356,16.0112475 10.5272225,16.9291968 C9.16808892,17.8471463 6.6117009,18 4.73368794,18 C3.54294781,18 1.73162807,17.6771372 0,17.1671655 L0,17.1671655 Z M20.1083506,10.3885837 L15.6750534,0.653015763 L19.6503193,0.653015763 L22.3892892,7.62694905 L28.5923646,0.653015763 L33.1266607,0.653015763 L24.0266525,10.6036598 L22.3892892,17.7283093 L18.5430259,17.7283093 L20.1083506,10.3885837 L20.1083506,10.3885837 Z M34.3991318,0.634379968 L39.2491312,0.634379968 L43.2768613,13.3490584 L46.3661128,0.634379968 L50.0782921,0.634379968 L46.0882624,17.7355031 L41.0699762,17.7355031 L36.978831,4.36282877 L34.1107358,17.7355031 L30.2627948,17.7355031 L34.3991318,0.634379968 L34.3991318,0.634379968 Z M50.9929886,14.904278 C49.30183,12.1205934 49.2257329,11.1281174 49.5363568,8.18569241 C49.8469808,5.24326744 51.0277081,4.10720531 52.9422688,2.50667824 C54.8568295,0.906151161 57.6719331,0.262426896 60.4529905,0.262426896 C62.0433079,0.262426896 63.8735568,0.477834387 65.884889,0.987806248 L65.2249535,3.99775993 C62.9932637,3.17395922 61.7707326,2.84700494 60.4529905,2.89835696 C56.7671198,3.04199429 55.2932473,4.76858429 54.7420223,5.46192294 C54.1907975,6.15526158 53.7022216,6.54476139 53.4053892,8.60625085 C53.1085568,10.6677403 53.6832392,11.6855167 54.3063206,12.9605981 C54.9294021,14.2356793 57.0253312,15.1037137 58.975268,15.1037137 C60.6534924,15.1037137 60.7453141,14.9629168 62.906222,13.9508188 L62.2811622,17.3170145 C57.5332894,18.2955574 52.684147,17.6879627 50.9929886,14.904278 L50.9929886,14.904278 Z M67.3753527,0.36465132 L71.3022443,0.36465132 L69.6640363,7.09971726 L77.3832275,7.09971726 L79.028511,0.194757563 L82.6971956,0.194757563 L79.028511,17.3527884 L75.0468011,17.3527884 L76.7963053,10.0228981 L69.0908774,10.0228981 L67.3753527,17.3527884 L63.5319184,17.3527884 L67.3753527,0.36465132 L67.3753527,0.36465132 Z M84.1260872,0.412276149 L90.5968974,0.412276149 C92.2990964,0.412276149 94.0070274,0.597217423 95.0721378,1.60158875 C96.1372484,2.60596005 96.5736841,4.07471466 96.1372484,5.44546706 C95.0721378,8.79075446 92.2230486,8.41634124 90.7384282,8.62813633 C90.7384282,8.62813633 91.6522113,8.62813633 92.3972643,9.41287052 C93.1423175,10.1976047 94.6626344,17.3036098 94.6626344,17.3036098 L90.738428,17.3036098 C90.738428,17.3036098 89.6751717,12.0123991 88.9696483,10.990107 C88.6408609,10.5136993 88.4982025,10.3163849 88.0172099,10.3163849 L85.8373686,10.3163849 L84.2477955,17.1692322 L80.3495016,17.1692322 L84.1260872,0.412276149 L84.1260872,0.412276149 Z M88.1588408,7.44324775 C91.3234923,7.44324775 92.1140154,6.25297945 92.3123975,5.29768841 C92.7833006,3.03009694 90.3000653,3.04918692 88.8402145,3.04918692 L87.4225462,3.04918692 L86.5364791,7.44324787 L88.1588408,7.44324775 L88.1588408,7.44324775 Z M97.5970999,14.6066505 C96.5007558,12.9315891 96.0593525,10.7577596 96.7203678,8.00391154 C97.3851496,5.23437206 98.9007228,3.30519601 100.81985,1.84123856 C102.738978,0.377281124 104.693399,0 107.210736,0 C109.720081,0 112.589487,0.976341482 113.702526,2.6317886 C114.815566,4.28723573 115.379029,6.74463341 114.71613,9.50632718 C114.040049,12.322941 112.966498,13.6401821 111.059675,15.2917064 C109.152853,16.9432307 106.308166,17.481358 103.726897,17.481358 C101.265501,17.481358 98.6934438,16.2817119 97.5970999,14.6066505 L97.5970999,14.6066505 Z M108.131649,13.3843161 C109.430509,12.1015407 110.211186,11.1960069 110.77239,8.85798203 C111.316645,6.59056868 110.982824,4.78973789 109.906093,3.71669717 C108.829362,2.64365645 107.322298,2.6048703 106.566563,2.6048703 C105.810829,2.6048703 103.964865,3.113856 102.666005,4.39663137 C101.367145,5.67940675 100.687308,7.33840583 100.398912,9.11464848 C100.110517,10.8908911 100.333539,12.2254123 100.538892,12.7622515 C100.744245,13.2990908 102.149585,14.8743085 103.88375,14.8743085 C105.697831,14.8743085 106.832788,14.6670914 108.131649,13.3843161 L108.131649,13.3843161 Z" id="SYNCHRO" fill="#FFFFFF"></path>
    </g>
</svg>