<?xml version="1.0" encoding="UTF-8" standalone="no"?>
<svg width="147px" height="23px" viewBox="0 0 147 23" version="1.1" xmlns="http://www.w3.org/2000/svg" xmlns:xlink="http://www.w3.org/1999/xlink">
    <!-- Generator: Sketch 39 (31667) - http://www.bohemiancoding.com/sketch -->
    <title>SYNCHRO</title>
    <desc>Created with Sketch.</desc>
    <defs></defs>
    <g id="Page-1" stroke="none" stroke-width="1" fill="none" fill-rule="evenodd">
        <path d="M0,21.9358225 L1.17569232,18.1117386 C3.4502692,19.2746488 5.42512446,19.5772186 7.06978431,19.5772186 C8.33647886,19.5772186 8.97055512,19.4405883 9.8982809,18.7889576 C10.8260067,18.1373268 11.4644383,17.7105939 11.7196084,16.6479346 C11.9290405,15.775752 11.7342653,15.3548449 11.3754522,14.7433145 C11.0166391,14.1317842 10.2836759,13.8585991 9.10558873,13.1067175 L7.06978455,12.2089419 C5.39908155,11.1262324 4.79836986,10.7990223 4.2365796,9.84162646 C3.67478934,8.88423055 3.49225739,6.80796926 3.79798007,5.5347831 C4.20962242,3.82049308 4.91036049,3.36410223 6.44305785,2.25633 C7.97575521,1.1485578 10.518393,0.687774733 12.4797265,0.687774733 C14.2265391,0.687774733 16.9387466,0.891431592 18.7424354,1.4628616 L17.6472837,5.09766536 C15.4783769,4.17535727 14.3446642,4.00313007 13.1699071,4.00313007 C12.0564418,4.00313007 11.2847354,4.05160838 10.1468194,4.41643548 C9.00890342,4.78126261 8.69181014,5.47779382 8.47997081,6.36000155 C8.30183317,7.10185806 8.67874641,7.81246628 9.8982809,8.60444823 L12.3098186,10.0171031 C14.0087602,11.1098377 15.5276828,12.1342836 16.0705392,13.1067171 C16.6133957,14.0791506 16.9643743,15.9657541 16.6369862,17.3291661 C16.172384,19.264008 15.1938638,20.4588162 13.4565366,21.6317515 C11.7192093,22.8046869 8.45147854,23 6.05088806,23 C4.52881155,23 2.21347241,22.5874531 0,21.9358225 L0,21.9358225 Z M25.7037177,13.2743014 L20.0368074,0.834409031 L25.1182342,0.834409031 L28.6193522,9.74554601 L36.5485009,0.834409031 L42.3445141,0.834409031 L30.7123297,13.5491209 L28.6193522,22.6528397 L23.7028244,22.6528397 L25.7037177,13.2743014 L25.7037177,13.2743014 Z M43.9710641,0.810596625 L50.1706286,0.810596625 L55.3191183,17.0571301 L59.2679877,0.810596625 L64.0131212,0.810596625 L58.9128224,22.6620317 L52.4981434,22.6620317 L47.2685927,5.57472565 L43.6024187,22.6620317 L38.6837464,22.6620317 L43.9710641,0.810596625 L43.9710641,0.810596625 Z M65.182342,19.0443552 C63.0206001,15.4874248 62.9233281,14.2192611 63.3203866,10.4594959 C63.717445,6.69973061 65.2267225,5.24809567 67.6740305,3.20297775 C70.1213385,1.15785982 73.7197753,0.335323257 77.2746922,0.335323257 C79.3075326,0.335323257 81.6470683,0.610566161 84.2180754,1.26219687 L83.3745058,5.1082488 C80.5218241,4.05561456 78.9591104,3.63783964 77.2746922,3.70345611 C72.5631879,3.88699271 70.6791944,6.09319103 69.974585,6.97912376 C69.2699759,7.86505647 68.6454485,8.36275066 68.2660192,10.9968761 C67.8865899,13.6310015 68.6211841,14.9314936 69.4176447,16.5607642 C70.2141052,18.1900347 72.8932495,19.2991898 75.3857774,19.2991898 C77.530986,19.2991898 77.648358,19.1192826 80.4105621,17.8260462 L79.6115726,22.1272964 C73.5425525,23.3776566 67.3440836,22.6012857 65.182342,19.0443552 L65.182342,19.0443552 Z M86.123277,0.465943354 L91.1428688,0.465943354 L89.0488117,9.07186095 L98.9159517,9.07186095 L101.019053,0.248856886 L105.708589,0.248856886 L101.019053,22.1730074 L95.9293893,22.1730074 L98.165712,12.8070365 L88.316165,12.8070365 L86.123277,22.1730074 L81.2103653,22.1730074 L86.123277,0.465943354 L86.123277,0.465943354 Z M107.535085,0.526797301 L115.806469,0.526797301 C117.982323,0.526797301 120.165505,0.763111151 121.526994,2.04647451 C122.888483,3.32983784 123.446361,5.20657984 122.888483,6.9580968 C121.526994,11.2326307 117.885114,10.7542138 115.987382,11.0248409 C115.987382,11.0248409 117.155435,11.0248409 118.107807,12.0275568 C119.06018,13.0302727 121.003541,22.110168 121.003541,22.110168 L115.987382,22.110168 C115.987382,22.110168 114.628263,15.3491766 113.72642,14.0429145 C113.306144,13.4341713 113.123789,13.1820474 112.508955,13.1820474 L109.722549,13.1820474 L107.69066,21.9384633 L102.707624,21.9384633 L107.535085,0.526797301 L107.535085,0.526797301 Z M112.689996,9.51081657 C116.735247,9.51081657 117.745741,7.98991819 117.999326,6.76926852 C118.601263,3.87179053 115.42704,3.89618328 113.56097,3.89618328 L111.74882,3.89618328 L110.616195,9.51081672 L112.689996,9.51081657 L112.689996,9.51081657 Z M124.754554,18.6640534 C123.35314,16.5236972 122.788911,13.7460262 123.633861,10.2272203 C124.483626,6.6883643 126.420924,4.22330601 128.87407,2.35269372 C131.327215,0.482081437 133.825476,0 137.043288,0 C140.250886,0 143.918736,1.24754745 145.34149,3.36284099 C146.764245,5.47813454 147.484498,8.61814269 146.63714,12.1469736 C145.772932,15.7459802 144.400654,17.4291216 141.963237,19.5394026 C139.52582,21.6496837 135.889569,22.3372907 132.590034,22.3372907 C129.443728,22.3372907 126.155967,20.8044097 124.754554,18.6640534 L124.754554,18.6640534 Z M138.220455,17.1021816 C139.880738,15.4630797 140.878647,14.3060088 141.596012,11.3185326 C142.291712,8.4212822 141.865001,6.12022064 140.488658,4.74911305 C139.112315,3.37800546 137.185893,3.32844538 136.219868,3.32844538 C135.253843,3.32844538 132.894219,3.978816 131.233937,5.61791786 C129.573654,7.25701974 128.704646,9.37685189 128.336001,11.6464953 C127.967356,13.9161387 128.252437,15.6213601 128.514932,16.3073214 C128.777426,16.9932826 130.573817,19.0060608 132.790533,19.0060608 C135.109401,19.0060608 136.560173,18.7412835 138.220455,17.1021816 L138.220455,17.1021816 Z" id="SYNCHRO" fill="#2C86D0"></path>
    </g>
</svg>